<svg width="64" height="64" viewBox="0 0 64 64" fill="none" xmlns="http://www.w3.org/2000/svg">
<path fill-rule="evenodd" clip-rule="evenodd" d="M37.9463 5.3335H26.6663C14.8843 5.3335 5.33301 14.8848 5.33301 26.6668V37.9735C5.33301 49.7556 14.8843 59.3068 26.6663 59.3068H37.9463C49.7284 59.3068 59.2797 49.7556 59.2797 37.9735V26.6668C59.2797 14.8848 49.7284 5.3335 37.9463 5.3335ZM21.653 16.3202C24.5985 16.3202 26.9863 18.708 26.9863 21.6535C26.9863 24.599 24.5985 26.9868 21.653 26.9868C18.7075 26.9868 16.3197 24.599 16.3197 21.6535C16.3197 18.708 18.7075 16.3202 21.653 16.3202ZM41.3597 53.6535C48.9094 50.834 53.9228 43.6325 53.9463 35.5735L53.8663 30.9868C53.8663 29.8935 53.653 27.8402 53.653 27.8402H49.3063C39.2434 27.8707 30.0545 33.5634 25.5463 42.5602C22.2741 39.6349 18.0421 38.0124 13.653 38.0002H10.4263C10.1883 44.1995 13.5554 49.9776 19.0663 52.8268C21.0364 53.8763 23.2342 54.4257 25.4663 54.4268H36.5863C38.2104 54.4501 39.826 54.1883 41.3597 53.6535Z" fill="#E2E8F0"/>
</svg>
