<svg width="240" height="220" viewBox="0 0 240 220" fill="none" xmlns="http://www.w3.org/2000/svg">
<path d="M135.138 190.104C142.738 190.104 145.638 193.771 148.638 195.604L124.248 195.604C123.404 195.604 122.969 194.648 123.6 194.088C125.663 192.257 129.314 190.104 135.138 190.104Z" fill="#E2E8F0"/>
<path d="M148.638 167.104L148.638 195.604M148.638 195.604C145.638 193.771 142.738 190.104 135.138 190.104C129.314 190.104 125.663 192.257 123.6 194.088C122.969 194.648 123.404 195.604 124.248 195.604L148.638 195.604Z" stroke="#E2E8F0" stroke-width="4"/>
<path d="M94.1377 190.104C101.738 190.104 104.638 193.771 107.638 195.604L83.2479 195.604C82.4043 195.604 81.9689 194.648 82.5999 194.088C84.6634 192.257 88.3145 190.104 94.1377 190.104Z" fill="#E2E8F0"/>
<path d="M107.638 167.104L107.638 195.604M107.638 195.604C104.638 193.771 101.738 190.104 94.1377 190.104C88.3145 190.104 84.6634 192.257 82.5999 194.088C81.9689 194.648 82.4043 195.604 83.2479 195.604L107.638 195.604Z" stroke="#E2E8F0" stroke-width="4"/>
<path d="M192.466 144.392C180.437 121.035 160.102 83.2034 147.5 91.1679C131.747 101.124 170.412 131.756 151.796 144.392C133.18 157.028 115.995 79.6805 99.0971 91.1679C82.1991 102.655 115.422 132.905 102.248 144.392C91.7078 153.582 73.6068 121.312 59.0001 96.5503" stroke="#E2E8F0" stroke-width="49.0909" stroke-linecap="round"/>
<path d="M92 120C92.4594 118.667 94.6648 116 99.8108 116C104.957 116 108.081 118.667 109 120" stroke="white" stroke-width="3.5" stroke-linecap="round"/>
<path d="M122 120C122.459 118.667 124.665 116 129.811 116C134.957 116 138.081 118.667 139 120" stroke="white" stroke-width="3.5" stroke-linecap="round"/>
<path d="M197 82C197.47 76.4482 188.665 75.196 183.5 75.4999C158 77 180.837 80.0282 197 82Z" fill="#E2E8F0"/>
<path d="M195.618 103.663C221.168 101.619 203.834 85.9742 197 82M197 82C197.47 76.4482 188.665 75.196 183.5 75.4999C158 77 180.837 80.0282 197 82Z" stroke="#E2E8F0" stroke-width="4"/>
<path d="M176.831 38.1934C178.8 32.1395 181.625 30.6923 184.251 31.5465C186.877 32.4007 188.31 35.2328 186.34 41.2867C184.371 47.3407 177.755 51.5166 177.755 51.5166C177.755 51.5166 174.862 44.2474 176.831 38.1934Z" fill="#E2E8F0"/>
<path d="M191.991 48.4107C194.485 46.0982 196.179 46.1577 197.182 47.2393C198.185 48.3208 198.117 50.0149 195.624 52.3274C193.13 54.6398 188.957 54.8673 188.957 54.8673C188.957 54.8673 189.498 50.7231 191.991 48.4107Z" fill="#E2E8F0"/>
<path d="M195.887 57.1418C198.397 57.1416 199.284 58.0241 199.284 59.1129C199.284 60.2016 198.397 61.0843 195.887 61.0844C193.377 61.0846 191.005 59.1134 191.005 59.1134C191.005 59.1134 193.377 57.1419 195.887 57.1418Z" fill="#E2E8F0"/>
<path d="M205.142 51.3663C206.832 51.0331 207.555 51.5528 207.71 52.3392C207.865 53.1257 207.394 53.8809 205.703 54.2141C204.013 54.5473 202.134 53.4384 202.134 53.4384C202.134 53.4384 203.452 51.6995 205.142 51.3663Z" fill="#E2E8F0"/>
<path d="M39.6073 144.254C34.3814 146.186 28.7484 146.232 24.1011 141.781C14.4844 132.573 30.4316 139.593 39.6073 144.254Z" fill="#E2E8F0"/>
<path d="M61.5 130C58.5461 133.19 45.1951 142.187 39.6073 144.254M39.6073 144.254C34.3814 146.186 28.7484 146.232 24.1011 141.781C14.4844 132.573 30.4316 139.593 39.6073 144.254Z" stroke="#E2E8F0" stroke-width="4"/>
</svg>
