<svg width="120" height="120" viewBox="0 0 120 120" fill="none" xmlns="http://www.w3.org/2000/svg">
<path d="M35.4351 88.9969C36.4901 87.9845 37.7462 87.9997 39.4692 89.1091C40.2941 89.6403 41.226 90.4224 42.294 91.4626C44.3731 93.4875 45.0565 95.4564 45.2391 96.8008C45.2958 97.2188 44.82 97.4292 44.5062 97.1472L35.4351 88.9969Z" fill="#E2E8F0"/>
<path d="M44.959 78.397V78.397C47.3882 84.1737 42.4035 90.3283 36.2481 89.1522L35.4351 88.9969M35.4351 88.9969C36.9952 87.4998 38.9952 88.2498 42.294 91.4626C44.3731 93.4875 45.0565 95.4564 45.2391 96.8008C45.2958 97.2188 44.82 97.4292 44.5062 97.1472L35.4351 88.9969Z" stroke="#E2E8F0" stroke-width="2"/>
<path d="M65.75 92.4998C61.95 92.4998 60.5 94.3331 59 95.2498H71.1949C71.6167 95.2498 71.8344 94.7717 71.5189 94.4917C70.4871 93.5761 68.6616 92.4998 65.75 92.4998Z" fill="#E2E8F0"/>
<path d="M59 80.9998V95.2498M59 95.2498C60.5 94.3331 61.95 92.4998 65.75 92.4998C68.6616 92.4998 70.4871 93.5761 71.5189 94.4917C71.8344 94.7717 71.6167 95.2498 71.1949 95.2498H59Z" stroke="#E2E8F0" stroke-width="2"/>
<path d="M16.5 69.6957C22.5146 58.0169 32.682 39.1012 38.983 43.0835C46.8592 48.0613 27.5267 63.3777 36.8349 69.6957C46.1431 76.0137 54.7354 37.3398 63.1844 43.0834C71.6334 48.8271 55.0218 63.952 61.6091 69.6957C66.879 74.2906 75.9295 58.1554 83.2329 45.7747" stroke="#E2E8F0" stroke-width="24.5454" stroke-linecap="round"/>
<path d="M53.5 56.2495C53.5 58.4518 52.958 60.4214 52.1079 61.824C51.2523 63.2358 50.1386 63.9995 49 63.9995C47.8614 63.9995 46.7477 63.2358 45.8921 61.824C45.042 60.4214 44.5 58.4518 44.5 56.2495C44.5 54.0473 45.042 52.0776 45.8921 50.675C46.7477 49.2633 47.8614 48.4995 49 48.4995C50.1386 48.4995 51.2523 49.2633 52.1079 50.675C52.958 52.0776 53.5 54.0473 53.5 56.2495Z" fill="white" stroke="#E2E8F0"/>
<path d="M53.5 56.2498C53.5 57.6217 53.1548 58.8398 52.623 59.6989C52.0864 60.5656 51.4105 60.9998 50.75 60.9998C50.0895 60.9998 49.4136 60.5656 48.877 59.6989C48.3452 58.8398 48 57.6217 48 56.2498C48 54.8778 48.3452 53.6597 48.877 52.8006C49.4136 51.9339 50.0895 51.4998 50.75 51.4998C51.4105 51.4998 52.0864 51.9339 52.623 52.8006C53.1548 53.6597 53.5 54.8778 53.5 56.2498Z" fill="#E2E8F0" stroke="#E2E8F0"/>
<path d="M66.5 56.2495C66.5 58.4518 65.958 60.4214 65.1079 61.824C64.2523 63.2358 63.1386 63.9995 62 63.9995C60.8614 63.9995 59.7477 63.2358 58.8921 61.824C58.042 60.4214 57.5 58.4518 57.5 56.2495C57.5 54.0473 58.042 52.0776 58.8921 50.675C59.7477 49.2633 60.8614 48.4995 62 48.4995C63.1386 48.4995 64.2523 49.2633 65.1079 50.675C65.958 52.0776 66.5 54.0473 66.5 56.2495Z" fill="white" stroke="#E2E8F0"/>
<path d="M66.5 56.2498C66.5 57.6217 66.1548 58.8398 65.623 59.6989C65.0864 60.5656 64.4105 60.9998 63.75 60.9998C63.0895 60.9998 62.4136 60.5656 61.877 59.6989C61.3452 58.8398 61 57.6217 61 56.2498C61 54.8778 61.3452 53.6597 61.877 52.8006C62.4136 51.9339 63.0895 51.4998 63.75 51.4998C64.4105 51.4998 65.0864 51.9339 65.623 52.8006C66.1548 53.6597 66.5 54.8778 66.5 56.2498Z" fill="#E2E8F0" stroke="#E2E8F0"/>
<path d="M88.0851 67.9702C90.7555 68.7636 93.5675 68.6025 95.7409 66.2303C100.238 61.3217 92.5109 65.345 88.0851 67.9702Z" fill="#E2E8F0"/>
<path d="M80.958 63.6873C82.536 65.1822 85.2296 67.1219 88.0851 67.9702M88.0851 67.9702C90.7555 68.7636 93.5675 68.6025 95.7409 66.2303C100.238 61.3217 92.5109 65.345 88.0851 67.9702Z" stroke="#E2E8F0" stroke-width="2"/>
<g clip-path="url(#clip0_10_1773)">
<path d="M77.7797 23.0758C77.6252 22.5456 77.9298 21.9905 78.4601 21.836L92.3812 17.7797C92.9114 17.6252 93.4665 17.9298 93.621 18.46L113.394 86.322C113.452 86.5194 113.447 86.7298 113.381 86.9245L109.309 98.8661C109.085 99.522 108.278 99.7571 107.737 99.324L97.8882 91.4386C97.7276 91.3101 97.6106 91.1352 97.5531 90.9377L77.7797 23.0758Z" fill="#E2E8F0"/>
<g clip-path="url(#clip1_10_1773)">
<mask id="mask0_10_1773" style="mask-type:alpha" maskUnits="userSpaceOnUse" x="77" y="17" width="37" height="83">
<path d="M77.7797 23.0758C77.6252 22.5456 77.9298 21.9905 78.4601 21.836L92.3812 17.7797C92.9114 17.6252 93.4665 17.9298 93.621 18.46L113.394 86.322C113.452 86.5194 113.447 86.7298 113.381 86.9245L109.309 98.8661C109.085 99.522 108.278 99.7571 107.737 99.324L97.8882 91.4386C97.7276 91.3101 97.6106 91.1352 97.5531 90.9377L77.7797 23.0758Z" fill="#D9D9D9"/>
</mask>
<g mask="url(#mask0_10_1773)">
<path fill-rule="evenodd" clip-rule="evenodd" d="M102.779 101.722L78.8613 19.636L79.8214 19.3562L103.739 101.443L102.779 101.722Z" fill="#CBD5E1"/>
<path fill-rule="evenodd" clip-rule="evenodd" d="M105.66 100.883L81.7422 18.7969L82.7023 18.5171L106.62 100.604L105.66 100.883Z" fill="#CBD5E1"/>
<path fill-rule="evenodd" clip-rule="evenodd" d="M108.54 100.044L84.6221 17.9575L85.5821 17.6778L109.5 99.7642L108.54 100.044Z" fill="#CBD5E1"/>
<path fill-rule="evenodd" clip-rule="evenodd" d="M111.42 99.2048L87.502 17.1184L88.462 16.8387L112.38 98.9251L111.42 99.2048Z" fill="#CBD5E1"/>
<path fill-rule="evenodd" clip-rule="evenodd" d="M114.301 98.3655L90.3828 16.2791L91.3429 15.9993L115.261 98.0857L114.301 98.3655Z" fill="#CBD5E1"/>
</g>
</g>
</g>
<mask id="mask1_10_1773" style="mask-type:alpha" maskUnits="userSpaceOnUse" x="78" y="17" width="36" height="83">
<path d="M78.0737 23.1424C77.9192 22.6122 78.2238 22.0571 78.754 21.9026L92.1951 17.9862C92.7253 17.8317 93.2804 18.1363 93.4349 18.6666L113.21 86.5361C113.267 86.7288 113.263 86.934 113.201 87.1249L109.357 98.9539C109.139 99.6246 108.314 99.865 107.77 99.4163L98.1731 91.5038C98.0182 91.3761 97.9054 91.2047 97.8492 91.012L78.0737 23.1424Z" fill="#94A3B8"/>
</mask>
<g mask="url(#mask1_10_1773)">
<rect x="103.47" y="98.0798" width="9.69697" height="5.5" transform="rotate(-16.2448 103.47 98.0798)" fill="#94A3B8"/>
</g>
<path d="M89.1664 63.2787C91.941 63.0292 94.4944 61.8404 95.6374 58.8331C98.0026 52.6101 92.3089 59.2039 89.1664 63.2787Z" fill="#E2E8F0"/>
<path d="M80.9611 61.9325C82.9798 62.7385 86.1995 63.5456 89.1664 63.2787M89.1664 63.2787C91.941 63.0292 94.4944 61.8404 95.6374 58.8331C98.0026 52.6101 92.3089 59.2039 89.1664 63.2787Z" stroke="#E2E8F0" stroke-width="2"/>
<defs>
<clipPath id="clip0_10_1773">
<rect width="16.5" height="83.75" fill="white" transform="translate(77.5 22.1157) rotate(-16.2448)"/>
</clipPath>
<clipPath id="clip1_10_1773">
<rect width="16.5" height="83.75" fill="white" transform="translate(77.5 22.1157) rotate(-16.2448)"/>
</clipPath>
</defs>
</svg>
