<svg width="71" height="40" viewBox="0 0 71 40" fill="none" xmlns="http://www.w3.org/2000/svg">
<path d="M14 27.6755C17.8755 20.1502 24.427 7.96164 28.4871 10.5276C33.5622 13.7352 21.1052 23.6044 27.103 27.6755C33.1009 31.7466 38.6373 6.82664 44.0815 10.5276C49.5258 14.2286 38.8219 23.9745 43.0665 27.6755C46.4622 30.6363 52.294 20.2394 57 12.2617" stroke="#6500C3" stroke-width="15.8161" stroke-linecap="round"/>
<path d="M37.8413 19.0114C37.8413 20.4304 37.4921 21.6996 36.9443 22.6034C36.393 23.5131 35.6754 24.0052 34.9417 24.0052C34.2081 24.0052 33.4904 23.5131 32.9391 22.6034C32.3913 21.6996 32.0421 20.4304 32.0421 19.0114C32.0421 17.5924 32.3913 16.3232 32.9391 15.4194C33.4904 14.5097 34.2081 14.0176 34.9417 14.0176C35.6754 14.0176 36.393 14.5097 36.9443 15.4194C37.4921 16.3232 37.8413 17.5924 37.8413 19.0114Z" fill="white" stroke="#0F172A" stroke-width="0.64436"/>
<path d="M37.8413 19.0113C37.8413 19.8953 37.6189 20.6803 37.2762 21.2338C36.9305 21.7923 36.4949 22.072 36.0693 22.072C35.6437 22.072 35.2082 21.7923 34.8625 21.2338C34.5198 20.6803 34.2973 19.8953 34.2973 19.0113C34.2973 18.1273 34.5198 17.3424 34.8625 16.7888C35.2082 16.2303 35.6437 15.9506 36.0693 15.9506C36.4949 15.9506 36.9305 16.2303 37.2762 16.7888C37.6189 17.3424 37.8413 18.1273 37.8413 19.0113Z" fill="#0F172A" stroke="#0F172A" stroke-width="0.64436"/>
<path d="M46.218 19.0114C46.218 20.4304 45.8688 21.6996 45.321 22.6034C44.7697 23.5131 44.0521 24.0052 43.3184 24.0052C42.5848 24.0052 41.8671 23.5131 41.3158 22.6034C40.7681 21.6996 40.4188 20.4304 40.4188 19.0114C40.4188 17.5924 40.7681 16.3232 41.3158 15.4194C41.8671 14.5097 42.5848 14.0176 43.3184 14.0176C44.0521 14.0176 44.7697 14.5097 45.321 15.4194C45.8688 16.3232 46.218 17.5924 46.218 19.0114Z" fill="white" stroke="#0F172A" stroke-width="0.64436"/>
<path d="M46.218 19.0113C46.218 19.8953 45.9956 20.6803 45.6529 21.2338C45.3072 21.7923 44.8717 22.072 44.446 22.072C44.0204 22.072 43.5849 21.7923 43.2392 21.2338C42.8965 20.6803 42.674 19.8953 42.674 19.0113C42.674 18.1273 42.8965 17.3424 43.2392 16.7888C43.5849 16.2303 44.0204 15.9506 44.446 15.9506C44.8717 15.9506 45.3072 16.2303 45.6529 16.7888C45.9956 17.3424 46.218 18.1273 46.218 19.0113Z" fill="#0F172A" stroke="#0F172A" stroke-width="0.64436"/>
</svg>
